<?xml version="1.0" encoding="utf-8"?>
<!-- Generator: Adobe Illustrator 27.8.1, SVG Export Plug-In . SVG Version: 6.00 Build 0)  -->
<svg version="1.1" id="Layer_1" xmlns="http://www.w3.org/2000/svg" xmlns:xlink="http://www.w3.org/1999/xlink" x="0px" y="0px"
	 viewBox="0 0 1920 1080" style="enable-background:new 0 0 1920 1080;" xml:space="preserve">
<style type="text/css">
	.st0{fill:#2138AA;}
	.st1{fill:#FFFFFF;}
</style>
<g>
	<g>
		<polygon class="st0" points="701.52,299.67 701.52,536.27 701.33,536.27 508.88,343.84 321.68,531.04 321.68,299.67 		"/>
		<g>
			<g>
				<path class="st1" d="M704.58,663.44v52.69H579.86c-23.33,0-42.31,19.31-42.31,43.05v18.41h-51.94v-18.41
					c0-23.74-18.98-43.05-42.31-43.05H318.62v-52.69H443.3c25.85,0,50.54,10.82,68.27,29.81c17.75-18.99,42.44-29.81,68.29-29.81
					H704.58z"/>
			</g>
		</g>
	</g>
	<g>
		<path class="st1" d="M907.32,475.99v-139.7H851.2v-34.92h149.68v34.92h-56.13v139.7H907.32z"/>
		<path class="st1" d="M994.64,475.99l46.15-174.62h78.58l46.15,174.62h-38.67l-9.98-38.67h-73.59l-9.98,38.67H994.64z
			 M1052.01,402.4h56.13l-17.46-66.11h-21.2L1052.01,402.4z"/>
		<path class="st1" d="M1182.97,475.99V301.37h37.42v139.7h86.06v34.92H1182.97z"/>
		<path class="st1" d="M1325.16,475.99V301.37h37.42v174.62H1325.16z"/>
		<path class="st1" d="M1395.01,475.99V301.37h56.13l42.41,99.78h6.24l42.41-99.78h56.13v174.62h-37.42V364.98l2.49-22.45h-2.49
			l-39.91,93.55h-48.64l-39.91-93.55h-2.5l2.5,22.45v111.01H1395.01z"/>
		<path class="st1" d="M851.2,775.33V600.71h81.07c13.8,0,25.98,2.7,36.55,8.11c10.56,5.41,18.75,12.77,24.57,22.08
			c5.82,9.32,8.73,19.62,8.73,30.93c0,11.31-2.91,21.62-8.73,30.93c-5.82,9.32-14.01,16.68-24.57,22.08
			c-10.56,5.41-22.74,8.11-36.55,8.11h-43.65v52.38H851.2z M931.02,688.03c10.31,0,18.29-2.41,23.95-7.24
			c5.65-4.82,8.48-11.14,8.48-18.96c0-7.82-2.83-14.13-8.48-18.96c-5.66-4.82-13.64-7.23-23.95-7.23h-42.41v52.39H931.02z"/>
		<path class="st1" d="M1025.82,775.33V600.71h82.32c13.8,0,25.9,2.58,36.3,7.73c10.39,5.16,18.37,12.22,23.95,21.2
			c5.57,8.98,8.36,18.88,8.36,29.69c0,12.97-3.66,23.99-10.98,33.05c-7.32,9.07-16.96,15.93-28.94,20.58l39.91,62.36h-42.41
			l-36.17-57.37h-34.92v57.37H1025.82z M1106.89,683.03c10.31,0,18.09-2.16,23.32-6.48c5.24-4.32,7.86-10.06,7.86-17.21
			c0-7.15-2.62-12.89-7.86-17.21c-5.24-4.32-13.02-6.48-23.32-6.48h-43.65v47.4H1106.89z"/>
		<path class="st1" d="M1290.24,780.33c-17.96,0-34.26-4.12-48.89-12.35c-14.64-8.23-26.15-19.42-34.55-33.55
			c-8.4-14.13-12.6-29.6-12.6-46.4c0-16.8,4.2-32.26,12.6-46.4c8.4-14.13,19.91-25.32,34.55-33.55
			c14.63-8.23,30.93-12.35,48.89-12.35s34.26,4.12,48.89,12.35c14.63,8.23,26.15,19.42,34.55,33.55c8.4,14.14,12.6,29.6,12.6,46.4
			c0,16.8-4.2,32.27-12.6,46.4c-8.4,14.14-19.92,25.32-34.55,33.55C1324.5,776.21,1308.2,780.33,1290.24,780.33z M1290.24,745.4
			c10.64,0,20.24-2.45,28.81-7.36c8.56-4.9,15.26-11.68,20.08-20.33c4.82-8.65,7.24-18.54,7.24-29.69c0-11.14-2.41-21.04-7.24-29.69
			c-4.82-8.65-11.52-15.42-20.08-20.33c-8.57-4.9-18.17-7.36-28.81-7.36c-10.64,0-20.25,2.46-28.81,7.36
			c-8.57,4.91-15.26,11.69-20.08,20.33c-4.83,8.65-7.24,18.55-7.24,29.69c0,11.14,2.41,21.04,7.24,29.69
			c4.82,8.65,11.51,15.43,20.08,20.33C1269.99,742.95,1279.59,745.4,1290.24,745.4z"/>
	</g>
</g>
</svg>
