<svg width="74" height="46" viewBox="0 0 74 46" fill="none" xmlns="http://www.w3.org/2000/svg">
<rect x="1" y="1" width="40" height="40" stroke="#171717" stroke-width="2"/>
<rect x="5" y="5" width="40" height="40" fill="white" stroke="#171717" stroke-width="2"/>
<rect x="14" y="17" width="60" height="17" fill="white"/>
<path d="M23.26 25.904C23.8013 26.0813 24.2307 26.38 24.548 26.8C24.8653 27.2107 25.024 27.724 25.024 28.34C25.024 29.1893 24.6973 29.8473 24.044 30.314C23.3907 30.7713 22.4387 31 21.188 31H16.316V21.2H20.908C22.0653 21.2 22.9567 21.4287 23.582 21.886C24.2073 22.334 24.52 22.9547 24.52 23.748C24.52 24.2333 24.408 24.6627 24.184 25.036C23.96 25.4093 23.652 25.6987 23.26 25.904ZM18.136 22.628V25.33H20.712C21.3467 25.33 21.832 25.218 22.168 24.994C22.5133 24.7607 22.686 24.4247 22.686 23.986C22.686 23.538 22.5133 23.202 22.168 22.978C21.832 22.7447 21.3467 22.628 20.712 22.628H18.136ZM21.076 29.572C22.4853 29.572 23.19 29.1007 23.19 28.158C23.19 27.2153 22.4853 26.744 21.076 26.744H18.136V29.572H21.076ZM26.7984 23.524H28.5484V31H26.7984V23.524ZM27.6804 22.292C27.3631 22.292 27.0971 22.194 26.8824 21.998C26.6677 21.7927 26.5604 21.5407 26.5604 21.242C26.5604 20.9433 26.6677 20.696 26.8824 20.5C27.0971 20.2947 27.3631 20.192 27.6804 20.192C27.9977 20.192 28.2637 20.29 28.4784 20.486C28.6931 20.6727 28.8004 20.9107 28.8004 21.2C28.8004 21.508 28.6931 21.7693 28.4784 21.984C28.2731 22.1893 28.0071 22.292 27.6804 22.292ZM33.3093 31.098C32.5346 31.098 31.9279 30.888 31.4893 30.468C31.0599 30.0387 30.8453 29.4367 30.8453 28.662V20.612H32.5953V28.536C32.5953 29.2827 32.9453 29.656 33.6453 29.656C33.8786 29.656 34.0886 29.6093 34.2753 29.516L34.3593 30.916C34.0326 31.0373 33.6826 31.098 33.3093 31.098ZM35.5484 23.524H37.2984V31H35.5484V23.524ZM36.4304 22.292C36.1131 22.292 35.8471 22.194 35.6324 21.998C35.4177 21.7927 35.3104 21.5407 35.3104 21.242C35.3104 20.9433 35.4177 20.696 35.6324 20.5C35.8471 20.2947 36.1131 20.192 36.4304 20.192C36.7477 20.192 37.0137 20.29 37.2284 20.486C37.4431 20.6727 37.5504 20.9107 37.5504 21.2C37.5504 21.508 37.4431 21.7693 37.2284 21.984C37.0231 22.1893 36.7571 22.292 36.4304 22.292ZM49.0313 23.44C49.9739 23.44 50.7206 23.7153 51.2713 24.266C51.8219 24.8073 52.0973 25.624 52.0973 26.716V31H50.3473V26.94C50.3473 26.2867 50.2026 25.7967 49.9133 25.47C49.6239 25.134 49.2086 24.966 48.6673 24.966C48.0793 24.966 47.6079 25.162 47.2533 25.554C46.8986 25.9367 46.7213 26.4873 46.7213 27.206V31H44.9713V26.94C44.9713 26.2867 44.8266 25.7967 44.5373 25.47C44.2479 25.134 43.8326 24.966 43.2913 24.966C42.6939 24.966 42.2179 25.1573 41.8633 25.54C41.5179 25.9227 41.3453 26.478 41.3453 27.206V31H39.5953V23.524H41.2613V24.476C41.5413 24.14 41.8913 23.8833 42.3113 23.706C42.7313 23.5287 43.1979 23.44 43.7113 23.44C44.2713 23.44 44.7659 23.5473 45.1953 23.762C45.6339 23.9673 45.9793 24.2753 46.2313 24.686C46.5393 24.294 46.9359 23.9907 47.4213 23.776C47.9066 23.552 48.4433 23.44 49.0313 23.44ZM54.8935 31.098C54.5762 31.098 54.3055 30.9907 54.0815 30.776C53.8575 30.552 53.7455 30.272 53.7455 29.936C53.7455 29.5907 53.8529 29.3107 54.0675 29.096C54.2915 28.8813 54.5669 28.774 54.8935 28.774C55.2202 28.774 55.4909 28.8813 55.7055 29.096C55.9295 29.3107 56.0415 29.5907 56.0415 29.936C56.0415 30.272 55.9295 30.552 55.7055 30.776C55.4815 30.9907 55.2109 31.098 54.8935 31.098ZM64.8528 23.524V31H63.1868V30.048C62.9068 30.384 62.5568 30.6453 62.1368 30.832C61.7168 31.0093 61.2641 31.098 60.7788 31.098C59.7801 31.098 58.9915 30.8227 58.4128 30.272C57.8435 29.712 57.5588 28.886 57.5588 27.794V23.524H59.3088V27.556C59.3088 28.228 59.4581 28.732 59.7568 29.068C60.0648 29.3947 60.4988 29.558 61.0588 29.558C61.6841 29.558 62.1788 29.3667 62.5428 28.984C62.9161 28.592 63.1028 28.032 63.1028 27.304V23.524H64.8528ZM66.5281 31V29.894L71.1341 24.322L71.4561 24.924H66.6121V23.524H72.8561V24.63L68.2501 30.202L67.9001 29.6H72.9821V31H66.5281Z" fill="#171717"/>
</svg>
