<svg width="1920" height="1080" viewBox="0 0 1920 1080" fill="none" xmlns="http://www.w3.org/2000/svg">
<path d="M638.967 240V535.344H638.73L398.498 295.137L164.819 528.815V240H638.967Z" fill="#2138AA"/>
<path d="M642.788 694.088V759.86H487.102C457.979 759.86 434.287 783.965 434.287 813.599V836.58H369.451V813.599C369.451 783.965 345.758 759.86 316.636 759.86H161V694.088H316.636C348.904 694.088 379.724 707.595 401.856 731.3C424.013 707.595 454.833 694.088 487.102 694.088H642.788Z" fill="black"/>
<path d="M895.865 460.097V285.712H825.812V242.122H1012.65V285.712H942.588V460.097H895.865Z" fill="black"/>
<path d="M1004.87 460.097L1062.47 242.122H1160.56L1218.17 460.097H1169.9L1157.44 411.826H1065.58L1053.12 460.097H1004.87ZM1076.48 368.236H1146.55L1124.75 285.712H1098.29L1076.48 368.236Z" fill="black"/>
<path d="M1239.95 460.097V242.122H1286.66V416.507H1394.09V460.097H1239.95Z" fill="black"/>
<path d="M1417.45 460.097V242.122H1464.16V460.097H1417.45Z" fill="black"/>
<path d="M1504.64 460.097V242.122H1574.71L1627.65 366.676H1635.43L1688.37 242.122H1758.44V460.097H1711.73V321.525L1714.84 293.501H1711.73L1661.91 410.278H1601.19L1551.38 293.501H1548.25L1551.38 321.525V460.097H1504.64Z" fill="black"/>
<path d="M825.812 833.758V615.783H927.01C944.236 615.783 959.44 619.154 972.635 625.907C985.816 632.66 996.04 641.847 1003.3 653.469C1010.57 665.103 1014.2 677.96 1014.2 692.078C1014.2 706.196 1010.57 719.066 1003.3 730.688C996.04 742.322 985.816 751.509 972.635 758.25C959.453 765.003 944.249 768.373 927.01 768.373H872.522V833.758H825.812ZM925.45 724.783C938.319 724.783 948.281 721.775 955.346 715.746C962.399 709.729 965.931 701.84 965.931 692.078C965.931 682.317 962.399 674.44 955.346 668.411C948.281 662.394 938.319 659.386 925.45 659.386H872.51V724.783H925.45Z" fill="black"/>
<path d="M1043.79 833.758V615.783H1146.55C1163.77 615.783 1178.88 619.004 1191.86 625.432C1204.83 631.874 1214.79 640.686 1221.75 651.896C1228.71 663.106 1232.19 675.464 1232.19 688.958C1232.19 705.148 1227.62 718.904 1218.48 730.213C1209.35 741.535 1197.31 750.099 1182.36 755.903L1232.18 833.746H1179.24L1134.09 762.132H1090.5V833.746H1043.79V833.758ZM1144.99 718.542C1157.86 718.542 1167.57 715.846 1174.1 710.453C1180.64 705.06 1183.91 697.895 1183.91 688.97C1183.91 680.045 1180.64 672.88 1174.1 667.487C1167.55 662.095 1157.84 659.398 1144.99 659.398H1090.5V718.567H1144.99V718.542Z" fill="black"/>
<path d="M1373.86 840C1351.44 840 1331.09 834.857 1312.83 824.584C1294.55 814.31 1280.19 800.342 1269.7 782.704C1259.22 765.066 1253.97 745.755 1253.97 724.784C1253.97 703.812 1259.22 684.514 1269.7 666.863C1280.19 649.225 1294.55 635.257 1312.83 624.983C1331.09 614.71 1351.44 609.567 1373.86 609.567C1396.28 609.567 1416.62 614.71 1434.89 624.983C1453.15 635.257 1467.53 649.225 1478.01 666.863C1488.5 684.514 1493.74 703.812 1493.74 724.784C1493.74 745.755 1488.5 765.066 1478.01 782.704C1467.53 800.355 1453.15 814.31 1434.89 824.584C1416.62 834.857 1396.28 840 1373.86 840ZM1373.86 796.398C1387.14 796.398 1399.12 793.339 1409.82 787.21C1420.51 781.094 1428.87 772.63 1434.89 761.833C1440.9 751.035 1443.92 738.689 1443.92 724.771C1443.92 710.865 1440.92 698.507 1434.89 687.709C1428.87 676.912 1420.51 668.461 1409.82 662.332C1399.12 656.215 1387.14 653.145 1373.86 653.145C1360.58 653.145 1348.58 656.215 1337.89 662.332C1327.2 668.461 1318.85 676.924 1312.83 687.709C1306.8 698.507 1303.79 710.865 1303.79 724.771C1303.79 738.677 1306.8 751.035 1312.83 761.833C1318.85 772.63 1327.2 781.094 1337.89 787.21C1348.58 793.339 1360.56 796.398 1373.86 796.398Z" fill="black"/>
</svg>
