<svg width="48" height="48" viewBox="0 0 48 48" fill="none" xmlns="http://www.w3.org/2000/svg">
<g clip-path="url(#clip0_96_2)">
<path d="M36 0H12C5.37258 0 0 5.37258 0 12V36C0 42.6274 5.37258 48 12 48H36C42.6274 48 48 42.6274 48 36V12C48 5.37258 42.6274 0 36 0Z" fill="#3B82F6"/>
<path fill-rule="evenodd" clip-rule="evenodd" d="M18.2873 19.6861C18.1229 19.7972 17.9627 19.9121 17.8067 20.0309C17.6886 20.0927 17.5743 20.1641 17.4639 20.2454C15.1716 21.935 13.2043 24.0754 11.646 26.1218L9.3381 23.8138C6.81177 21.2875 7.62504 18.7265 11.155 18.1382L16.6748 17.2211C17.5919 17.0654 18.6993 16.2521 19.1147 15.4043L22.1601 9.31346C23.8212 6.00847 26.5206 6.00847 28.1645 9.31346L31.2099 15.4043C31.6251 16.2521 32.7326 17.0654 33.6669 17.2211L39.1868 18.1382C42.7167 18.7265 43.5473 21.2875 41.0037 23.8138L36.7124 28.1051C35.9856 28.8319 35.5877 30.2335 35.8127 31.2371L37.0412 36.5492C38.0102 40.754 35.778 42.3806 32.0577 40.183L27.5577 37.5191C27.8766 37.327 28.1435 37.1479 28.3586 36.9877C28.7558 36.7879 29.145 36.5602 29.5235 36.3043C34.2017 33.1411 35.4788 26.8568 32.376 22.2677C29.2733 17.6788 22.9655 16.5229 18.2873 19.6861Z" fill="white"/>
<path fill-rule="evenodd" clip-rule="evenodd" d="M18.838 22.9592C18.9465 22.8765 19.0579 22.7966 19.1724 22.7192C22.428 20.5179 26.8279 21.3375 28.9999 24.5498C31.1719 27.7622 30.2934 32.1507 27.0378 34.352C26.7744 34.53 26.5035 34.6884 26.2269 34.8272C25.105 35.6637 21.9511 37.2332 16.7382 37.8758L21.1341 33.7559L9.00549 38.2515L18.1192 28.0563L12.0432 31.2792C12.803 29.607 15.1779 25.6317 18.5995 23.1084C18.6762 23.0519 18.7558 23.0022 18.838 22.9592Z" fill="white"/>
</g>
<defs>
<clipPath id="clip0_96_2">
<rect width="48" height="48" fill="white"/>
</clipPath>
</defs>
</svg>
