<svg xmlns="http://www.w3.org/2000/svg" fill="none" viewBox="0.98 0.68 14.04 13.47">
<path d="M6.85873 1.51246C7.21795 0.406888 8.78205 0.406888 9.14127 1.51246L9.97572 4.08065C10.1364 4.57508 10.5971 4.90983 11.117 4.90983H13.8173C14.9798 4.90983 15.4631 6.39737 14.5227 7.08065L12.3381 8.66788C11.9175 8.97345 11.7415 9.51509 11.9021 10.0095L12.7366 12.5777C13.0958 13.6833 11.8304 14.6026 10.89 13.9194L8.70534 12.3321C8.28476 12.0265 7.71524 12.0265 7.29466 12.3321L5.11002 13.9193C4.16957 14.6026 2.90419 13.6833 3.26341 12.5777L4.09787 10.0095C4.25852 9.51509 4.08253 8.97345 3.66194 8.66788L1.47731 7.08065C0.536856 6.39737 1.02019 4.90983 2.18265 4.90983H4.88301C5.40288 4.90983 5.86363 4.57508 6.02428 4.08065L6.85873 1.51246Z" fill="#F58543"/>
</svg>