<svg width="120" height="30" viewBox="0 0 120 30" fill="none" xmlns="http://www.w3.org/2000/svg">
<g clip-path="url(#clip0_256_121)">
<path d="M112.943 0H70.5901C66.6916 0 63.5312 3.16034 63.5312 7.05882V22.9412C63.5312 26.8397 66.6916 30 70.5901 30H112.943C116.841 30 120.002 26.8397 120.002 22.9412V7.05882C120.002 3.16034 116.841 0 112.943 0Z" fill="white"/>
<path d="M4.29535 22.9411V9.4729H-0.914062V8.11761H11.0718V9.4729H5.86241V22.9411H4.29535ZM19.6043 22.9411V20.4847L19.5408 20.0823V15.9741C19.5408 15.0282 19.2726 14.3011 18.7361 13.7929C18.2138 13.2847 17.4302 13.0305 16.3855 13.0305C15.6655 13.0305 14.9807 13.1505 14.3313 13.3905C13.6819 13.6305 13.1313 13.9482 12.6796 14.3435L12.0019 13.2211C12.5666 12.7411 13.2443 12.3741 14.0349 12.12C14.8255 11.8517 15.6584 11.7176 16.5337 11.7176C17.9738 11.7176 19.082 12.0776 19.8585 12.7976C20.6491 13.5035 21.0443 14.5835 21.0443 16.0376V22.9411H19.6043ZM15.7713 23.047C14.9384 23.047 14.2113 22.9129 13.5902 22.6447C12.9831 22.3623 12.5172 21.9811 12.1925 21.5011C11.8678 21.007 11.7055 20.4423 11.7055 19.807C11.7055 19.2282 11.8396 18.7058 12.1078 18.24C12.3902 17.76 12.8419 17.3788 13.4631 17.0964C14.0984 16.8 14.9455 16.6517 16.0043 16.6517H19.8373V17.7741H16.0466C14.9737 17.7741 14.2255 17.9647 13.8019 18.3458C13.3925 18.727 13.1878 19.2 13.1878 19.7647C13.1878 20.4 13.4349 20.9082 13.929 21.2894C14.4231 21.6705 15.1149 21.8611 16.0043 21.8611C16.8514 21.8611 17.5785 21.6705 18.1855 21.2894C18.8067 20.8941 19.2585 20.3294 19.5408 19.5953L19.8796 20.6329C19.5973 21.367 19.1032 21.9529 18.3973 22.3906C17.7055 22.8282 16.8302 23.047 15.7713 23.047ZM24.0519 12.3953L24.9837 8.49879L25.1531 9.3882C24.8284 9.3882 24.5531 9.28937 24.3272 9.09173C24.1155 8.87996 24.0096 8.60467 24.0096 8.26584C24.0096 7.92702 24.1155 7.65173 24.3272 7.43996C24.5531 7.2282 24.8213 7.12231 25.1319 7.12231C25.4566 7.12231 25.7178 7.23526 25.9155 7.46114C26.1272 7.6729 26.2331 7.94114 26.2331 8.26584C26.2331 8.37879 26.2261 8.49173 26.2119 8.60467C26.1978 8.71761 26.1696 8.84467 26.1272 8.98584C26.099 9.1129 26.0496 9.27526 25.979 9.4729L25.0684 12.3953H24.0519ZM29.4502 22.9411V7.2282H30.9537V22.9411H29.4502ZM35.1373 22.9411V11.8235H36.6408V22.9411H35.1373ZM35.8996 9.36702C35.5891 9.36702 35.3279 9.26114 35.1161 9.04937C34.9043 8.83761 34.7985 8.58349 34.7985 8.28702C34.7985 7.99055 34.9043 7.74349 35.1161 7.54584C35.3279 7.33408 35.5891 7.2282 35.8996 7.2282C36.2102 7.2282 36.4714 7.32702 36.6832 7.52467C36.8949 7.72231 37.0008 7.96937 37.0008 8.26584C37.0008 8.57643 36.8949 8.83761 36.6832 9.04937C36.4855 9.26114 36.2243 9.36702 35.8996 9.36702ZM54.716 11.7176C55.6195 11.7176 56.4031 11.8941 57.0666 12.247C57.7442 12.5858 58.2666 13.1082 58.6336 13.8141C59.0148 14.52 59.2054 15.4094 59.2054 16.4823V22.9411H57.7019V16.6305C57.7019 15.4588 57.4195 14.5764 56.8548 13.9835C56.3042 13.3764 55.5207 13.0729 54.5042 13.0729C53.7419 13.0729 53.0783 13.2353 52.5136 13.56C51.9631 13.8706 51.5325 14.3294 51.2219 14.9364C50.9254 15.5294 50.7772 16.2494 50.7772 17.0964V22.9411H49.2736V16.6305C49.2736 15.4588 48.9913 14.5764 48.4266 13.9835C47.8619 13.3764 47.0713 13.0729 46.0548 13.0729C45.3066 13.0729 44.6501 13.2353 44.0854 13.56C43.5207 13.8706 43.0831 14.3294 42.7725 14.9364C42.476 15.5294 42.3278 16.2494 42.3278 17.0964V22.9411H40.8242V11.8235H42.2642V14.8306L42.0313 14.3011C42.3701 13.4964 42.9136 12.8682 43.6619 12.4164C44.4242 11.9505 45.3207 11.7176 46.3513 11.7176C47.4383 11.7176 48.3631 11.9929 49.1254 12.5435C49.8878 13.08 50.3819 13.8917 50.6078 14.9788L50.0148 14.7458C50.3395 13.8423 50.9113 13.1153 51.7301 12.5647C52.5631 12 53.5583 11.7176 54.716 11.7176Z" fill="white"/>
<path d="M69.2812 22.9412V8.11765H75.0624C76.3613 8.11765 77.4695 8.32236 78.3871 8.73177C79.3048 9.14118 80.0107 9.73412 80.5048 10.5106C80.9989 11.2871 81.246 12.2118 81.246 13.2847C81.246 14.3577 80.9989 15.2824 80.5048 16.0588C80.0107 16.8212 79.3048 17.4141 78.3871 17.8377C77.4695 18.2471 76.3613 18.4518 75.0624 18.4518H70.446L71.3989 17.4565V22.9412H69.2812ZM71.3989 17.6682L70.446 16.6094H74.9989C76.3542 16.6094 77.3777 16.32 78.0695 15.7412C78.7754 15.1624 79.1283 14.3435 79.1283 13.2847C79.1283 12.2259 78.7754 11.4071 78.0695 10.8282C77.3777 10.2494 76.3542 9.96001 74.9989 9.96001H70.446L71.3989 8.90118V17.6682ZM84.3571 22.9412V8.11765H90.1383C91.4371 8.11765 92.5454 8.32236 93.463 8.73177C94.3807 9.14118 95.0865 9.73412 95.5807 10.5106C96.0748 11.2871 96.3218 12.2118 96.3218 13.2847C96.3218 14.3577 96.0748 15.2824 95.5807 16.0588C95.0865 16.8212 94.3807 17.4071 93.463 17.8165C92.5454 18.2259 91.4371 18.4306 90.1383 18.4306H85.5218L86.4748 17.4565V22.9412H84.3571ZM94.2677 22.9412L90.4983 17.5624H92.7642L96.576 22.9412H94.2677ZM86.4748 17.6682L85.5218 16.6306H90.0748C91.4301 16.6306 92.4536 16.3412 93.1454 15.7624C93.8513 15.1694 94.2042 14.3435 94.2042 13.2847C94.2042 12.2259 93.8513 11.4071 93.1454 10.8282C92.4536 10.2494 91.4301 9.96001 90.0748 9.96001H85.5218L86.4748 8.90118V17.6682ZM106.435 23.1106C105.305 23.1106 104.254 22.92 103.28 22.5388C102.32 22.1577 101.487 21.6282 100.781 20.9506C100.075 20.2588 99.5243 19.4541 99.129 18.5365C98.7337 17.6188 98.536 16.6165 98.536 15.5294C98.536 14.4424 98.7337 13.44 99.129 12.5224C99.5243 11.6047 100.075 10.8071 100.781 10.1294C101.487 9.43765 102.32 8.90118 103.28 8.52001C104.24 8.13883 105.291 7.94824 106.435 7.94824C107.564 7.94824 108.602 8.13883 109.548 8.52001C110.508 8.88707 111.341 9.41648 112.047 10.1082C112.767 10.7859 113.317 11.5835 113.698 12.5012C114.094 13.4188 114.291 14.4282 114.291 15.5294C114.291 16.6306 114.094 17.64 113.698 18.5577C113.317 19.4753 112.767 20.28 112.047 20.9718C111.341 21.6494 110.508 22.1788 109.548 22.56C108.602 22.9271 107.564 23.1106 106.435 23.1106ZM106.435 21.2259C107.254 21.2259 108.009 21.0847 108.701 20.8024C109.407 20.52 110.014 20.1247 110.522 19.6165C111.044 19.0941 111.447 18.4871 111.729 17.7953C112.025 17.1035 112.174 16.3482 112.174 15.5294C112.174 14.7106 112.025 13.9553 111.729 13.2635C111.447 12.5718 111.044 11.9718 110.522 11.4635C110.014 10.9412 109.407 10.5388 108.701 10.2565C108.009 9.97412 107.254 9.83295 106.435 9.83295C105.602 9.83295 104.832 9.97412 104.127 10.2565C103.435 10.5388 102.828 10.9412 102.305 11.4635C101.783 11.9718 101.374 12.5718 101.077 13.2635C100.795 13.9553 100.654 14.7106 100.654 15.5294C100.654 16.3482 100.795 17.1035 101.077 17.7953C101.374 18.4871 101.783 19.0941 102.305 19.6165C102.828 20.1247 103.435 20.52 104.127 20.8024C104.832 21.0847 105.602 21.2259 106.435 21.2259Z" fill="#171717"/>
</g>
<defs>
<clipPath id="clip0_256_121">
<rect width="120" height="30" fill="white"/>
</clipPath>
</defs>
</svg>
